<?xml version="1.0" encoding="utf-8"?>
<!-- Generator: Adobe Illustrator 24.1.2, SVG Export Plug-In . SVG Version: 6.00 Build 0)  -->
<svg version="1.1" id="Capa_1" xmlns="http://www.w3.org/2000/svg" xmlns:xlink="http://www.w3.org/1999/xlink" x="0px" y="0px"
	 viewBox="0 0 107.7 108" style="enable-background:new 0 0 107.7 108;" xml:space="preserve">
<style type="text/css">
	.st0{fill:#FFFFFF;}
</style>
<path class="st0" d="M107.7,1.9c-0.2-1-0.9-1.7-1.9-1.9h-7.4c-0.2,0.2-0.4,0.1-0.6,0.1c-4.1,0-8.3,0.3-12.4,0.9
	c-9.4,1.2-18.6,3.2-27.6,6C47.7,10.1,38,14.3,29.2,20.5c-5.6,3.9-10.6,8.5-14.4,14.3c-5.9,9-8,19.9-6.1,30.5
	c1.1,6.8,4,13.2,8.3,18.6c0.9,1.1,0.8,1.1-0.1,2.1c-5.2,5.2-10.4,10.4-15.5,15.6c-0.6,0.6-1.1,1.3-1.3,2.1v2.5
	c0.2,0.9,0.9,1.7,1.9,1.9h2.5c0.8-0.3,1.5-0.7,2.1-1.4c5.2-5.2,10.4-10.4,15.6-15.6c0.9-0.9,0.9-0.9,1.9-0.1
	c8.7,6.9,19.7,10.1,30.7,8.8c5.8-0.6,11.5-2.5,16.6-5.4c5.8-3.4,10.4-8.1,14.4-13.4c5.9-8.1,10.5-17,13.7-26.5
	c2.8-8.2,4.9-16.6,6.3-25.1c1-5.4,1.6-10.9,1.9-16.4c-0.1-1.2,0-2.4,0.2-3.6V1.9z M40.7,21.4c4.2-2.2,8.5-4.1,12.9-5.8v33.2
	c0,0.3-0.1,0.7-0.3,0.9c-4.5,4.5-9,9-13.6,13.6v-1.2c0-13.1,0-26.1,0-39.2C39.7,22.3,40.1,21.7,40.7,21.4L40.7,21.4z M23.4,79.8
	c-0.3,0.3-0.4,0.5-0.9,0c-3.2-4-5.5-8.7-6.8-13.7c-0.9-3.7-1.2-7.6-0.8-11.4c0.5-6.5,2.9-12.8,6.8-18c2.4-3.2,5.2-6,8.5-8.4
	c1-0.7,1.9-1.5,3-2.2c0,14.5,0,28.9,0,43.3c0,0.3-0.1,0.7-0.4,0.9C29.7,73.4,26.6,76.6,23.4,79.8z M79.1,78.2
	c-1.5,2-3.2,3.8-5.1,5.5c-3.3,3-7,5.4-11.2,7c-2.5,1-5.1,1.7-7.7,2.1c-5.7,0.7-11.6,0.1-17-1.8c-3.6-1.3-7-3.3-10-5.7
	c-0.4-0.3-0.1-0.4,0-0.6c3.2-3.2,6.4-6.5,9.7-9.7c0.2-0.2,0.5-0.3,0.8-0.3h43.1C80.9,75.9,80,77.1,79.1,78.2z M86.3,67.4
	c-0.2,0.5-0.7,0.8-1.2,0.8c-13.4,0-26.8,0-40.2,0h-0.2c0-0.4,0.3-0.5,0.5-0.7l12.5-12.6c0.3-0.4,0.7-0.6,1.2-0.7c11,0,22,0,33,0
	C90.4,58.7,88.5,63.1,86.3,67.4z M101,9.1c0,2.3-0.3,4.5-0.5,6.8c-0.4,3.5-0.8,7-1.4,10.5c-0.8,5.3-1.9,10.5-3.2,15.6
	c-0.4,1.7-1,3.3-1.4,5c-0.1,0.6-0.3,0.7-0.9,0.7H64.9c6.1-6.1,12-12,17.8-17.9c1-0.8,1.4-2.2,1.1-3.4c-0.4-1.8-2.2-2.9-4-2.5
	c-0.7,0.2-1.3,0.5-1.8,1.1c-4.4,4.4-8.8,8.8-13.3,13.3L60.2,43v-1.3c0-9.1,0-18.1,0-27.2c0-0.9,0.3-1.3,1-1.4
	c4.6-1.3,9.3-2.5,14-3.4c3.2-0.6,6.3-1.2,9.4-1.7c2-0.3,4.1-0.4,6.2-0.7c2.6-0.3,5.2-0.6,7.8-0.7c0.8,0,1.9-0.6,2.4,0
	S101,8.3,101,9.1z"/>
</svg>
