<?xml version="1.0" encoding="utf-8"?>
<!-- Generator: Adobe Illustrator 24.1.2, SVG Export Plug-In . SVG Version: 6.00 Build 0)  -->
<svg version="1.1" id="Capa_1" xmlns="http://www.w3.org/2000/svg" xmlns:xlink="http://www.w3.org/1999/xlink" x="0px" y="0px"
	 viewBox="0 0 82.4 114" style="enable-background:new 0 0 82.4 114;" xml:space="preserve">
<style type="text/css">
	.st0{fill:#FFFFFF;}
</style>
<path class="st0" d="M41.2,0C18.4,0.1,0,18.5,0,41.3c0,28.3,36.8,69.8,38.4,71.5c1.4,1.5,3.7,1.7,5.2,0.3c0.1-0.1,0.2-0.2,0.3-0.3
	c1.6-1.8,38.4-43.3,38.4-71.5C82.4,18.5,63.9,0.1,41.2,0z M41.2,104.6C28.8,89.8,7.4,60.7,7.4,41.3c0-18.7,15.1-33.8,33.8-33.8
	S75,22.6,75,41.3C75,60.7,53.6,89.8,41.2,104.6z"/>
<path class="st0" d="M41.2,20.5c-11.5,0-20.8,9.2-20.8,20.7c0,11.5,9.2,20.8,20.7,20.8c11.5,0,20.8-9.2,20.8-20.7c0,0,0,0,0-0.1
	C61.9,29.8,52.6,20.6,41.2,20.5z M41.2,54.6c-7.4,0-13.4-5.9-13.4-13.3S33.8,28,41.1,28c7.4,0,13.4,5.9,13.4,13.3c0,0,0,0,0,0
	C54.5,48.7,48.5,54.6,41.2,54.6z"/>
</svg>
