<?xml version="1.0" encoding="utf-8"?>
<!-- Generator: Adobe Illustrator 24.1.2, SVG Export Plug-In . SVG Version: 6.00 Build 0)  -->
<svg version="1.1" id="Capa_1" xmlns="http://www.w3.org/2000/svg" xmlns:xlink="http://www.w3.org/1999/xlink" x="0px" y="0px"
	 viewBox="0 0 100.9 100.9" style="enable-background:new 0 0 100.9 100.9;" xml:space="preserve">
<style type="text/css">
	.st0{fill:#FFFFFF;}
</style>
<path class="st0" d="M49.9,44.2h-20v-6h27.4v43.3h-7.4V44.2z M47,23.5c-0.1-3.1,2.3-5.6,5.4-5.7c0.2,0,0.3,0,0.5,0
	c3.1-0.2,5.7,2.2,5.9,5.2c0,0.1,0,0.3,0,0.5c0.1,3-2.3,5.6-5.3,5.7c-0.2,0-0.4,0-0.6,0c-3,0.2-5.6-2.1-5.8-5.1
	C47,23.8,47,23.7,47,23.5z"/>
<path class="st0" d="M50.4,100.9C22.6,100.9,0,78.3,0,50.4S22.6,0,50.4,0s50.4,22.6,50.4,50.4C100.8,78.3,78.3,100.8,50.4,100.9z
	 M50.4,5.9C25.9,5.9,5.9,25.8,5.9,50.4c0,24.6,19.9,44.5,44.5,44.5S94.9,75,94.9,50.4c0,0,0,0,0,0C94.9,25.9,75,6,50.4,5.9z"/>
</svg>
