<?xml version="1.0" encoding="utf-8"?>
<!-- Generator: Adobe Illustrator 24.1.2, SVG Export Plug-In . SVG Version: 6.00 Build 0)  -->
<svg version="1.1" id="Capa_1" xmlns="http://www.w3.org/2000/svg" xmlns:xlink="http://www.w3.org/1999/xlink" x="0px" y="0px"
	 viewBox="0 0 107.7 108" style="enable-background:new 0 0 107.7 108;" xml:space="preserve">
<style type="text/css">
	.st0{fill:#FFFFFF;}
</style>
<path class="st0" d="M104.6,50.8C94.4,50.8,85,56.6,78,67.2c-0.7,1-1.3,2-1.9,3.1c1.5-12.3,4.3-24.5,8.2-36.3
	c5.9-17.1,13.6-27.7,20.3-27.7c1.7-0.1,3.1-1.6,3-3.3c-0.1-1.6-1.4-2.9-3-3c-10,0.1-19.7,3-28,8.5c-8.4,5.4-16,13-22.4,22.7
	l-0.3,0.4c-5.4-8.5-12.4-15.9-20.7-21.8C23.8,3.3,13.7,0,3.2,0c-1.7,0.1-3.1,1.6-3,3.3c0.1,1.6,1.4,2.9,3,3
	c6.6,0,14.4,10.6,20.3,27.7c3.9,11.8,6.6,23.9,8.2,36.3c-0.6-1.1-1.2-2.1-1.9-3.1c-7-10.5-16.4-16.3-26.5-16.3C1.4,50.9,0,52.3,0,54
	c0,1.8,1.4,3.2,3.2,3.2c2.1,0,5.6,4,8.6,12.8c3.3,9.6,5.1,22,5.1,34.9c0,1.7,1.4,3.1,3.2,3.1h67.6c1.7,0,3.2-1.4,3.2-3.2
	c0,0,0,0,0,0c0-13,1.8-25.4,5.1-34.9c3-8.8,6.6-12.8,8.7-12.8c1.8,0,3.2-1.4,3.2-3.2C107.7,52.2,106.3,50.8,104.6,50.8L104.6,50.8z
	 M17.9,9c12.3,4.4,23.5,14.3,32.3,28.6c-5.6,10-9.7,20.8-12.3,32c-1.6-12.8-4.4-25.5-8.5-37.7C26,22.1,22.1,14.4,17.9,9z
	 M23.2,101.7c-0.3-12.5-2.2-24.4-5.4-33.9c-0.8-2.4-1.8-4.8-2.9-7.1c3.8,2.6,7.1,6,9.6,9.9c5.5,8.3,8.8,19.3,9.3,31L23.2,101.7z
	 M59.4,34.7C68,21.8,78.5,13,89.9,8.9c-4.2,5.4-8.2,13.1-11.6,23c-6.6,19.3-10.4,44-10.7,69.8H40.2C40.7,76.3,47.5,52.7,59.4,34.7
	L59.4,34.7z M90,67.9c-3.2,9.4-5.1,21.3-5.4,33.8H74c0.5-11.8,3.8-22.7,9.3-31c2.5-3.9,5.8-7.3,9.6-9.9C91.8,63.1,90.8,65.5,90,67.9
	z"/>
</svg>
