<?xml version="1.0" encoding="utf-8"?>
<!-- Generator: Adobe Illustrator 24.1.2, SVG Export Plug-In . SVG Version: 6.00 Build 0)  -->
<svg version="1.1" id="Capa_1" xmlns="http://www.w3.org/2000/svg" xmlns:xlink="http://www.w3.org/1999/xlink" x="0px" y="0px"
	 viewBox="0 0 113.7 114" style="enable-background:new 0 0 113.7 114;" xml:space="preserve">
<style type="text/css">
	.st0{fill:#FFFFFF;}
</style>
<path class="st0" d="M56.8,24.3C38.8,24.2,24,38.8,24,56.9s14.6,32.8,32.7,32.9c18.1,0,32.8-14.6,32.9-32.7c0,0,0-0.1,0-0.1
	C89.5,38.9,74.9,24.3,56.8,24.3z M56.8,82.9c-14.3,0-25.9-11.5-26-25.8c0-14.3,11.5-25.9,25.8-26s25.9,11.5,26,25.8c0,0,0,0,0,0
	C82.7,71.3,71.1,82.9,56.8,82.9z"/>
<path class="st0" d="M60.3,13V3.4c0-4.5-6.8-4.6-6.8,0V13C53.4,17.5,60.3,17.5,60.3,13z"/>
<path class="st0" d="M53.4,101v9.6c0,4.5,6.8,4.6,6.8,0V101C60.3,96.5,53.4,96.5,53.4,101z"/>
<path class="st0" d="M90.3,28.3l6.8-6.8c3.2-3.2-1.6-8.1-4.8-4.9l-6.8,6.8C82.2,26.7,87.2,31.5,90.3,28.3z"/>
<path class="st0" d="M23.4,85.7l-6.8,6.8c-3.3,3.3,1.7,8,4.9,4.9l6.8-6.8C31.5,87.4,26.6,82.5,23.4,85.7z"/>
<path class="st0" d="M110.3,53.6h-9.6c-4.5,0-4.5,6.9,0,6.9h9.6C114.8,60.5,114.8,53.6,110.3,53.6z"/>
<path class="st0" d="M13,53.6H3.4c-4.5,0-4.5,6.9,0,6.9H13C17.5,60.5,17.5,53.6,13,53.6z"/>
<path class="st0" d="M90.3,85.7c-3.2-3.2-8,1.7-4.8,4.9l6.8,6.8c3.2,3.2,8.1-1.6,4.8-4.9L90.3,85.7z"/>
<path class="st0" d="M23.4,28.3c3.2,3.2,8-1.7,4.8-4.9l-6.8-6.8c-3.2-3.2-8,1.6-4.9,4.9L23.4,28.3z"/>
</svg>
