<?xml version="1.0" encoding="utf-8"?>
<!-- Generator: Adobe Illustrator 24.1.2, SVG Export Plug-In . SVG Version: 6.00 Build 0)  -->
<svg version="1.1" id="Capa_1" xmlns="http://www.w3.org/2000/svg" xmlns:xlink="http://www.w3.org/1999/xlink" x="0px" y="0px"
	 viewBox="0 0 99.6 102" style="enable-background:new 0 0 99.6 102;" xml:space="preserve">
<style type="text/css">
	.st0{fill:#FFFFFF;}
</style>
<path class="st0" d="M96.2,53.7H77.7c-0.2-5.7-1.2-11.4-2.9-16.9l15-15.1c1.3-1.3,1.3-3.5,0-4.8c-1.3-1.3-3.5-1.3-4.8,0l0,0
	l-12.9,13c-3.1-6.8-8.1-13.3-15-16.2l8-6.9h14.4c1.9,0,3.4-1.5,3.4-3.4S81.4,0,79.6,0H63.8c-0.8,0-1.6,0.3-2.2,0.8L49.8,11.1L38,0.8
	C37.4,0.3,36.6,0,35.8,0H20.1c-1.9,0-3.4,1.5-3.4,3.4s1.5,3.4,3.4,3.4l0,0h14.4l8,6.9c-6.9,2.9-11.8,9.4-15,16.2l-12.9-13
	c-1.3-1.3-3.5-1.3-4.8,0s-1.3,3.5,0,4.8l15,15.1c-1.7,5.5-2.6,11.2-2.9,16.9H3.4c-1.9,0-3.4,1.5-3.4,3.4c0,1.9,1.5,3.4,3.4,3.4h18.5
	c0.2,5.7,1.2,11.4,2.9,16.9l-15,15.1c-1.3,1.3-1.3,3.5,0,4.8c1.3,1.3,3.5,1.3,4.8,0l12.9-13c0.6,1.3,1.3,2.6,2,3.9
	C34.8,97.1,42,102,49.8,102c10.3,0,17.9-8.2,22.4-17.7l12.9,13c1.3,1.3,3.5,1.3,4.8,0c1.3-1.3,1.3-3.5,0-4.8l0,0l-15-15.1
	c1.7-5.5,2.6-11.2,2.9-16.9h18.5c1.9,0,3.4-1.5,3.4-3.4C99.6,55.2,98.1,53.7,96.2,53.7L96.2,53.7z M49.8,19C58,19,64,27.5,67,35.1
	H32.6C35.7,27.4,41.6,19,49.8,19z M30.4,41.9h16v52.8C33.3,90.8,24.6,65.2,30.4,41.9z M53.2,94.7V41.9h16
	C75,65.2,66.3,90.8,53.2,94.7z"/>
</svg>
