<?xml version="1.0" encoding="utf-8"?>
<!-- Generator: Adobe Illustrator 24.1.2, SVG Export Plug-In . SVG Version: 6.00 Build 0)  -->
<svg version="1.1" id="Capa_1" xmlns="http://www.w3.org/2000/svg" xmlns:xlink="http://www.w3.org/1999/xlink" x="0px" y="0px"
	 viewBox="0 0 114.3 108" style="enable-background:new 0 0 114.3 108;" xml:space="preserve">
<style type="text/css">
	.st0{fill:#FFFFFF;}
</style>
<path class="st0" d="M47.1,84.5c0,5.5,4.6,10,10.1,9.9c5.5,0,10-4.6,9.9-10.1c0-5.5-4.5-9.9-9.9-9.9C51.6,74.5,47.1,79,47.1,84.5z
	 M57.2,81.2c1.9,0,3.4,1.5,3.4,3.3s-1.5,3.4-3.3,3.4c-1.9,0-3.4-1.5-3.4-3.3c0,0,0,0,0,0C53.8,82.7,55.3,81.2,57.2,81.2z"/>
<path class="st0" d="M57.2,27.4c-5.6,0-10.1,4.5-10,10.1v26.9c0,5.5,4.5,10,10,10s10-4.5,10-10V37.5C67.2,32,62.7,27.4,57.2,27.4z
	 M60.5,64.4c0.1,1.8-1.3,3.4-3.2,3.5c-1.8,0.1-3.4-1.3-3.5-3.2c0-0.1,0-0.2,0-0.4V37.5c-0.1-1.8,1.3-3.4,3.2-3.5
	c1.8-0.1,3.4,1.3,3.5,3.2c0,0.1,0,0.2,0,0.4V64.4z"/>
<path class="st0" d="M71.6,8.2c-4.7-8-14.9-10.6-22.9-5.9c-2.4,1.4-4.5,3.5-5.9,5.9L2.4,82.7c-4.7,8-2.1,18.3,5.9,23
	c2.6,1.5,5.5,2.3,8.5,2.3h80.8c9.3,0,16.8-7.5,16.8-16.8c0-3-0.8-6-2.3-8.5L71.6,8.2z M97.6,101.3H16.8c-5.6,0-10.1-4.5-10.1-10.1
	c0-1.8,0.5-3.6,1.4-5.1l40.4-74.4l0,0c2.8-4.8,8.9-6.4,13.7-3.6c1.5,0.9,2.7,2.1,3.6,3.6l40.4,74.4c2.8,4.8,1.3,11-3.5,13.8
	C101.1,100.8,99.4,101.3,97.6,101.3L97.6,101.3z"/>
</svg>
