<?xml version="1.0" encoding="utf-8"?>
<!-- Generator: Adobe Illustrator 24.1.2, SVG Export Plug-In . SVG Version: 6.00 Build 0)  -->
<svg version="1.1" id="Capa_1" xmlns="http://www.w3.org/2000/svg" xmlns:xlink="http://www.w3.org/1999/xlink" x="0px" y="0px"
	 viewBox="0 0 101.8 102" style="enable-background:new 0 0 101.8 102;" xml:space="preserve">
<style type="text/css">
	.st0{fill:#FFFFFF;}
</style>
<path class="st0" d="M95.2,6.6c-8.7-8.8-22.9-8.8-31.7-0.1c0,0-0.1,0.1-0.1,0.1L5.2,65c-0.5,0.4-0.7,1-0.8,1.7L0,98.7
	c-0.1,0.9,0.2,1.8,0.8,2.5c0.5,0.5,1.3,0.9,2.1,0.9c0.1,0,0.3,0,0.4,0l19.3-2.6c1.6-0.2,2.7-1.7,2.5-3.3c-0.2-1.6-1.7-2.7-3.3-2.5
	L6.3,95.7l3-22.4l23.5,23.5c0.5,0.5,1.3,0.9,2.1,0.9c0.8,0,1.5-0.3,2.1-0.9l58.2-58.4C103.9,29.7,103.9,15.4,95.2,6.6z M64.5,13.8
	l9.8,9.8L21.2,76.9l-9.8-9.8L64.5,13.8z M34.9,90.6L25.3,81l53.1-53.3l9.5,9.6L34.9,90.6z M92.1,33.1L68.7,9.7
	c7.1-5.8,17.6-4.8,23.4,2.3C97.2,18.1,97.2,27,92.1,33.1z"/>
</svg>
