<?xml version="1.0" encoding="utf-8"?>
<!-- Generator: Adobe Illustrator 24.1.2, SVG Export Plug-In . SVG Version: 6.00 Build 0)  -->
<svg version="1.1" id="Capa_1" xmlns="http://www.w3.org/2000/svg" xmlns:xlink="http://www.w3.org/1999/xlink" x="0px" y="0px"
	 viewBox="0 0 76.3 48.6" style="enable-background:new 0 0 76.3 48.6;" xml:space="preserve">
<style type="text/css">
	.st0{fill:#FFFFFF;}
</style>
<path class="st0" d="M16.5,9.3h-2.7V3.7c0.1-2-1.5-3.8-3.5-3.9S6.5,1.3,6.4,3.3c0,0.1,0,0.3,0,0.4v5.6H3.7c-2,0-3.7,1.7-3.7,3.7
	c0,0,0,0,0,0.1v12.8c0,2,1.7,3.7,3.7,3.7c0,0,0,0,0,0h2.7v15.4c-0.1,2,1.5,3.8,3.5,3.9s3.8-1.5,3.9-3.5c0-0.1,0-0.3,0-0.4V29.5h2.7
	c2,0,3.7-1.7,3.7-3.7c0,0,0,0,0,0V13C20.2,11,18.6,9.3,16.5,9.3C16.5,9.3,16.5,9.3,16.5,9.3z M12.8,22.1H7.4v-5.4h5.4V22.1z"/>
<path class="st0" d="M44.6,19.1h-2.7V3.7c0.1-2-1.5-3.8-3.5-3.9c-2-0.1-3.8,1.5-3.9,3.5c0,0.1,0,0.3,0,0.4v15.4h-2.7
	c-2,0-3.7,1.7-3.7,3.7v12.8c0,2,1.6,3.7,3.7,3.7c0,0,0,0,0,0h2.7v5.5c-0.1,2,1.5,3.8,3.5,3.9c2,0.1,3.8-1.5,3.9-3.5
	c0-0.1,0-0.3,0-0.4v-5.5h2.7c2,0,3.7-1.7,3.7-3.7c0,0,0,0,0,0V22.8C48.3,20.8,46.6,19.1,44.6,19.1z M40.9,31.9h-5.4v-5.4h5.4V31.9z"
	/>
<path class="st0" d="M72.7,9.3H70V3.7c0.1-2-1.5-3.8-3.5-3.9c-2-0.1-3.8,1.5-3.9,3.5c0,0.1,0,0.3,0,0.4v5.6h-2.8
	c-2,0-3.7,1.7-3.7,3.7c0,0,0,0,0,0.1v12.8c0,2,1.6,3.7,3.7,3.7h2.7v15.4c-0.1,2,1.5,3.8,3.5,3.9c2,0.1,3.8-1.5,3.9-3.5
	c0-0.1,0-0.3,0-0.4V29.5h2.7c2,0,3.7-1.7,3.7-3.7V13C76.4,11,74.8,9.3,72.7,9.3C72.7,9.3,72.7,9.3,72.7,9.3z M69,22.1h-5.4v-5.4H69
	V22.1z"/>
</svg>
