<?xml version="1.0" encoding="utf-8"?>
<!-- Generator: Adobe Illustrator 24.1.2, SVG Export Plug-In . SVG Version: 6.00 Build 0)  -->
<svg version="1.1" id="Capa_1" xmlns="http://www.w3.org/2000/svg" xmlns:xlink="http://www.w3.org/1999/xlink" x="0px" y="0px"
	 viewBox="0 0 164.1 116.3" style="enable-background:new 0 0 164.1 116.3;" xml:space="preserve">
<style type="text/css">
	.st0{fill:#FFFFFF;}
</style>
<path class="st0" d="M102.3,116.3c-1.2,0-2.5-0.3-3.6-0.8c-3.3-1.4-5.5-4.7-5.5-8.3V81.2c0-0.3-0.3-0.6-0.6-0.6H9c-5,0-9-4-9-9V45.1
	c0-5,4-9,9-9h83.7c0.3,0,0.6-0.3,0.6-0.6V9.1c-0.1-5,3.9-9,8.9-9.1c2.3,0,4.5,0.8,6.2,2.4l52.8,47.9c3.7,3.4,4,9.1,0.6,12.8
	c-0.1,0.2-0.3,0.3-0.4,0.4l-52.8,50.3C106.8,115.4,104.6,116.3,102.3,116.3z M9,44.6c-0.3,0-0.6,0.3-0.6,0.6l0,0v26.5
	c0,0.3,0.3,0.6,0.6,0.6h83.7c5,0,9,4,9,9v26.1c0,0.2,0.1,0.4,0.3,0.5c0.2,0.1,0.5,0.1,0.6-0.1l52.8-50.3l2.8-4l-2.9,3.2L102.6,8.6
	c-0.2-0.2-0.6-0.2-0.8,0c-0.1,0.1-0.1,0.2-0.1,0.4v26.4c0,5-4,9-9,9L9,44.6z"/>
</svg>
