<?xml version="1.0" encoding="utf-8"?>
<!-- Generator: Adobe Illustrator 24.1.2, SVG Export Plug-In . SVG Version: 6.00 Build 0)  -->
<svg version="1.1" id="Capa_1" xmlns="http://www.w3.org/2000/svg" xmlns:xlink="http://www.w3.org/1999/xlink" x="0px" y="0px"
	 viewBox="0 0 143.6 105.1" style="enable-background:new 0 0 143.6 105.1;" xml:space="preserve">
<style type="text/css">
	.st0{fill:#FFFFFF;}
</style>
<path class="st0" d="M142.2,37.2L94,0.7c-1.3-1-3.1-1-4.3,0l-7.9,6l-7.9-6c-1.3-1-3.1-1-4.3,0l-7.8,5.8L54,0.7c-1.3-1-3.1-1-4.3,0
	L1.4,37.2C0.5,37.9,0,38.9,0,40.1v61.4c0,2,1.6,3.6,3.6,3.6c0,0,0,0,0,0H140c2,0,3.6-1.6,3.6-3.6c0,0,0,0,0,0V40.1
	C143.6,38.9,143.1,37.9,142.2,37.2L142.2,37.2z M136.4,97.9h-13V40.1c0-1.1-0.5-2.2-1.4-2.9l-34.3-26l4.1-3.1l44.6,33.7V97.9z
	 M103.6,97.9V40.1c0-1.1-0.5-2.2-1.4-2.9L67.7,11.1l3.9-3l44.6,33.7v56L103.6,97.9z M57.7,97.9H45.9V71.7h11.8L57.7,97.9z
	 M64.9,97.9V68.1c0-2-1.6-3.6-3.6-3.6l0,0h-19c-2,0-3.6,1.6-3.6,3.6v29.8H7.2v-56L51.8,8.1l44.6,33.7v56L64.9,97.9z"/>
</svg>
