<?xml version="1.0" encoding="utf-8"?>
<!-- Generator: Adobe Illustrator 24.1.2, SVG Export Plug-In . SVG Version: 6.00 Build 0)  -->
<svg version="1.1" id="Capa_1" xmlns="http://www.w3.org/2000/svg" xmlns:xlink="http://www.w3.org/1999/xlink" x="0px" y="0px"
	 viewBox="0 0 107.7 108" style="enable-background:new 0 0 107.7 108;" xml:space="preserve">
<style type="text/css">
	.st0{fill:#FFFFFF;}
</style>
<path class="st0" d="M107.1,31.8L84.6,1.3C84,0.5,83,0,82,0c-1,0-1.9,0.5-2.5,1.3L57,31.8c-1,1.4-0.7,3.4,0.7,4.4
	c0.5,0.4,1.2,0.6,1.9,0.6h8.1v15.3c-1.6-0.8-3.5-1.3-5.3-1.3h-5.7c-6.4,0-11.6,5.2-11.6,11.7v6.6c-1.6-0.8-3.4-1.3-5.3-1.3h-5.6
	c-6.4,0-11.6,5.2-11.6,11.6V86c-1.6-0.8-3.5-1.3-5.3-1.3h-5.6C5.2,84.7,0,90,0,96.4c0,0,0,0,0,0v8.5c0,1.7,1.4,3.1,3.2,3.1h90.1
	c1.7,0,3.2-1.4,3.2-3.2v-68h8.1c1.8,0,3.2-1.4,3.2-3.2C107.7,33,107.5,32.3,107.1,31.8L107.1,31.8z M6.3,96.4c0-2.9,2.4-5.3,5.3-5.3
	h5.6c2.9,0,5.3,2.4,5.3,5.3v5.3H6.3V96.4z M28.9,96.4v-17c0-2.9,2.4-5.3,5.3-5.3c0,0,0,0,0,0h5.6c2.9,0,5.3,2.4,5.3,5.3c0,0,0,0,0,0
	v22.3H28.9V96.4z M51.4,79.4v-17c0-2.9,2.4-5.3,5.3-5.3c0,0,0,0,0,0h5.6c2.9,0,5.3,2.4,5.3,5.3v39.2H51.4V79.4z M93.3,30.5
	c-1.7,0-3.2,1.4-3.2,3.2c0,0,0,0,0,0v68H73.9v-68c0-1.7-1.4-3.2-3.1-3.2c0,0,0,0,0,0h-5L82,8.5l16.3,22L93.3,30.5z"/>
</svg>
