<?xml version="1.0" encoding="utf-8"?>
<!-- Generator: Adobe Illustrator 24.1.2, SVG Export Plug-In . SVG Version: 6.00 Build 0)  -->
<svg version="1.1" id="Capa_1" xmlns="http://www.w3.org/2000/svg" xmlns:xlink="http://www.w3.org/1999/xlink" x="0px" y="0px"
	 viewBox="0 0 157.1 96" style="enable-background:new 0 0 157.1 96;" xml:space="preserve">
<style type="text/css">
	.st0{fill:#FFFFFF;}
</style>
<path class="st0" d="M121.9,86.3L121.9,86.3l7.9,7.9c2.5,2.5,6.4,2.5,8.9,0c0,0,0,0,0,0l16.5-16.6c2.5-2.5,2.5-6.4,0-8.9
	c-10.8-10.8,1.5,1.5-7.9-8l-9.3-9.4l-9.3-9.3l9.5-9.5c2.5-2.5,2.5-6.5,0-8.9c-1-1-2.4-1.7-3.8-1.8l-49.5-5c-3.5-0.3-6.5,2.2-6.9,5.7
	c0,0.4,0,0.8,0,1.2l5,49.6c0.3,3.5,3.4,6,6.9,5.6c1.4-0.1,2.8-0.8,3.8-1.8l9.5-9.6l9.3,9.3L121.9,86.3z M111.1,59
	c-2.9-2.9-7.6-2.9-10.5,0c0,0,0,0,0,0l-9.4,9.4l-3.4-41.8l41.7,3.4l-9.4,9.4c-2.9,2.9-2.9,7.6,0,10.5l27.4,27.5l-9,9.1L111.1,59z"/>
<path class="st0" d="M35.2,9.8L35.2,9.8l-7.9-7.9c-2.5-2.5-6.4-2.5-8.9,0L1.8,18.4c-2.5,2.5-2.5,6.4,0,8.9c10.8,10.8-1.5-1.5,7.9,8
	l9.4,9.4l9.2,9.3l-9.5,9.5c-2.5,2.5-2.5,6.5,0,8.9c1,1,2.4,1.7,3.8,1.8l49.4,5c3.5,0.3,6.6-2.2,6.9-5.7c0-0.4,0-0.9,0-1.3l-5-49.6
	c-0.3-3.5-3.4-6-6.9-5.6c-1.4,0.1-2.8,0.8-3.8,1.8l-9.5,9.5l-9.3-9.3L35.2,9.8z M46,37.1c2.9,2.9,7.6,2.9,10.5,0c0,0,0,0,0,0
	l9.4-9.4l3.4,41.8l-41.7-3.4l9.4-9.4c2.9-2.9,2.9-7.6,0-10.5L9.5,18.6l9-9.1L46,37.1z"/>
</svg>
