<?xml version="1.0" encoding="utf-8"?>
<!-- Generator: Adobe Illustrator 24.1.2, SVG Export Plug-In . SVG Version: 6.00 Build 0)  -->
<svg version="1.1" id="Capa_1" xmlns="http://www.w3.org/2000/svg" xmlns:xlink="http://www.w3.org/1999/xlink" x="0px" y="0px"
	 viewBox="0 0 160.9 88.7" style="enable-background:new 0 0 160.9 88.7;" xml:space="preserve">
<style type="text/css">
	.st0{fill:#FFFFFF;}
</style>
<path class="st0" d="M156.2,0H4.6C2.1,0,0,1.7,0,3.8v81c0,2.1,2.1,3.8,4.6,3.8h151.6c2.6,0,4.6-1.7,4.6-3.8v-81
	C160.9,1.7,158.8,0,156.2,0z M151.6,81.1H9.3V7.6h142.3V81.1z"/>
<path class="st0" d="M84.2,53.2H70.3c-2.1,0-3.8,1.7-3.8,3.8c0,2.1,1.7,3.8,3.8,3.8h6.3v6.3c0,2.1,1.7,3.8,3.8,3.8s3.8-1.7,3.8-3.8
	v-6.3c5.6,0,10.1-4.5,10.1-10.1s-4.5-10.1-10.1-10.1h-7.6c-1.4-0.1-2.5-1.3-2.4-2.7c0.1-1.3,1.1-2.3,2.4-2.4h13.9
	c2.1,0,3.8-1.7,3.8-3.8s-1.7-3.8-3.8-3.8h-6.3v-6.3c0-2.1-1.7-3.8-3.8-3.8s-3.8,1.7-3.8,3.8v6.3c-5.6,0.2-10,4.9-9.8,10.5
	c0.2,5.4,4.5,9.6,9.8,9.8h7.6c1.4,0,2.5,1.1,2.5,2.5C86.8,52.1,85.6,53.2,84.2,53.2z"/>
<path class="st0" d="M22.2,64.6c2.8,0,5.1,2.3,5,5.1c0,2.1,1.7,3.8,3.8,3.8c0,0,0,0,0,0h12.6c2.1,0,3.8-1.7,3.8-3.8
	c0-2.1-1.7-3.8-3.8-3.8h-9.4c-1.2-3.9-4.3-7-8.3-8.3V31.1c3.9-1.2,7-4.3,8.3-8.3h9.4c2.1,0,3.8-1.7,3.8-3.8s-1.7-3.8-3.8-3.8H31.1
	c-2.1,0-3.8,1.7-3.8,3.8c0,0,0,0,0,0c0,2.8-2.3,5.1-5.1,5.1c-2.1,0-3.8,1.7-3.8,3.8c0,0,0,0,0,0v32.9C18.4,62.9,20.1,64.6,22.2,64.6
	C22.2,64.6,22.2,64.6,22.2,64.6z"/>
<path class="st0" d="M126.6,65.9h-9.4c-2.1,0-3.8,1.7-3.8,3.8c0,2.1,1.7,3.8,3.8,3.8h12.6c2.1,0,3.8-1.7,3.8-3.8
	c0-2.8,2.3-5.1,5.1-5.1c2.1,0,3.8-1.7,3.8-3.8c0,0,0,0,0,0V27.9c0-2.1-1.7-3.8-3.8-3.8c0,0,0,0,0,0c-2.8,0-5-2.3-5-5.1
	c0-2.1-1.7-3.8-3.8-3.8c0,0,0,0,0,0h-12.6c-2.1,0-3.8,1.7-3.8,3.8c0,2.1,1.7,3.8,3.8,3.8h9.4c1.2,3.9,4.3,7,8.3,8.3v26.5
	C130.9,58.8,127.8,61.9,126.6,65.9z"/>
</svg>
