<?xml version="1.0" encoding="utf-8"?>
<!-- Generator: Adobe Illustrator 16.0.0, SVG Export Plug-In . SVG Version: 6.00 Build 0)  -->
<!DOCTYPE svg PUBLIC "-//W3C//DTD SVG 1.1//EN" "http://www.w3.org/Graphics/SVG/1.1/DTD/svg11.dtd">
<svg version="1.1" id="Capa_1" xmlns="http://www.w3.org/2000/svg" xmlns:xlink="http://www.w3.org/1999/xlink" x="0px" y="0px"
	 width="612px" height="792px" viewBox="0 0 612 792" enable-background="new 0 0 612 792" xml:space="preserve">
<g>
	<path fill-rule="evenodd" clip-rule="evenodd" fill="#FFFFFF" d="M536.523,540.251h-18.82v-18.794
		c0-8.639-7.028-15.664-15.666-15.664c-8.623,0-15.639,7.025-15.639,15.664v18.794h-18.82c-8.638,0-15.666,7.026-15.666,15.664
		c0,8.639,7.028,15.666,15.666,15.666h18.82v18.793c0,8.638,7.016,15.666,15.639,15.666c8.638,0,15.666-7.028,15.666-15.666v-18.793
		h18.82c8.638,0,15.664-7.027,15.664-15.666C552.188,547.277,545.161,540.251,536.523,540.251z"/>
	<path fill-rule="evenodd" clip-rule="evenodd" fill="#FFFFFF" d="M579.826,478.127c-20.76-20.761-48.386-32.192-77.789-32.192
		c-24.24,0-47.282,7.813-66.285,22.219c0.419-3.191,0.657-6.421,0.657-9.682V328.158c0-41.867-34.062-75.929-75.929-75.929H219.868
		c-25.787,0-49.328,12.941-63.23,33.894H71.772c-36.85,0-66.829,29.973-66.829,66.814V461.76c0,19.507,8.729,37.943,23.391,50.525
		V652.39c0,36.857,29.973,66.844,66.816,66.844h70.644c4.407,0,8.764-0.438,13.025-1.3c11.886,26.495,38.4,44.764,69.063,44.764
		h84.583c41.867,0,75.93-34.063,75.93-75.929v-73.204c4.407,7.165,9.683,13.941,15.885,20.144
		c20.786,20.759,48.401,32.19,77.758,32.19c29.385,0,57.012-11.441,77.787-32.219C600.573,612.945,612,585.327,612,555.912
		S600.573,498.874,579.826,478.127z M502.037,634.594c-21.021,0-40.775-8.177-55.623-23.024
		c-30.665-30.692-30.655-80.624,0.024-111.306c14.85-14.85,34.595-23.027,55.599-23.027c21.038,0,40.802,8.178,55.65,23.025
		c30.665,30.691,30.667,80.612,0.001,111.279C542.821,626.407,523.057,634.594,502.037,634.594z M171.953,677.017
		c-1.868,0.493-3.927,0.8-6.159,0.8H95.15c-14.005,0-25.399-11.407-25.399-25.427V489.658l-10.423-5.965
		c-8.12-4.647-12.968-12.846-12.968-21.934V352.937c0-14.005,11.399-25.397,25.413-25.397h72.17
		c-0.001,0.206-0.003,0.411-0.003,0.619v130.314c0,22.793,10.49,44.293,28.014,58.593V677.017z M377.415,488.269l-10.438,5.962
		v192.538c0,19.032-15.481,34.512-34.513,34.512h-84.583c-18.29,0-33.333-14.389-34.264-32.762l-0.013-0.216
		c-0.047-0.803-0.132-1.597-0.235-2.391V494.23l-10.437-5.962c-11.006-6.287-17.577-17.427-17.577-29.797V328.158
		c0-4.606,0.898-9.083,2.67-13.308l0,0c5.411-12.882,17.91-21.205,31.843-21.205H360.48c19.031,0,34.513,15.481,34.513,34.513
		v130.314C394.993,470.842,388.423,481.981,377.415,488.269z"/>
	<path fill-rule="evenodd" clip-rule="evenodd" fill="#FFFFFF" d="M280.683,222.301c53.644-0.487,96.731-44.193,96.569-97.958
		c-0.175-52.902-44.692-97.121-97.728-97.041c-53.146,0.081-97.284,44.273-97.31,97.364
		C182.201,179.16,226.178,222.758,280.683,222.301z M279.834,59.362c34.107-0.081,64.414,29.741,65.291,64.227
		c0.903,34.944-29.403,66.032-64.616,66.275c-35.835,0.269-65.616-28.985-65.818-64.631
		C214.475,89.804,244.485,59.47,279.834,59.362z"/>
	<path fill-rule="evenodd" clip-rule="evenodd" fill="#FFFFFF" d="M100.988,272.937c44.813-0.323,81.629-37.855,81.226-82.776
		c-0.418-44.895-36.144-80.135-81.482-80.324c-46.282-0.162-81.739,35.187-81.605,81.456
		C19.262,237.131,55.473,273.262,100.988,272.937z M99.639,144.593c26.046-0.163,48.129,21.355,47.94,46.7
		c-0.188,25.048-23.243,47.455-48.263,46.97c-24.645-0.485-45.461-22.163-45.434-47.321
		C53.91,165.247,74.104,144.782,99.639,144.593z"/>
</g>
</svg>
