<?xml version="1.0" encoding="utf-8"?>
<!-- Generator: Adobe Illustrator 16.0.0, SVG Export Plug-In . SVG Version: 6.00 Build 0)  -->
<!DOCTYPE svg PUBLIC "-//W3C//DTD SVG 1.1//EN" "http://www.w3.org/Graphics/SVG/1.1/DTD/svg11.dtd">
<svg version="1.1" id="Capa_1" xmlns="http://www.w3.org/2000/svg" xmlns:xlink="http://www.w3.org/1999/xlink" x="0px" y="0px"
	 width="74.083px" height="81.987px" viewBox="0 0 74.083 81.987" enable-background="new 0 0 74.083 81.987" xml:space="preserve">
<g>
	<path fill-rule="evenodd" clip-rule="evenodd" fill="#ffffff" d="M51.99,31.281c0.916-0.086,1.698-0.216,2.479-0.219
		c4.391-0.022,8.783-0.046,13.172,0.003c3.678,0.043,6.251,2.515,6.335,6.177c0.093,4.145,0.216,8.308-0.081,12.434
		c-0.114,1.605-1.352,3.127-2.063,4.692c-0.371,0.826-0.999,1.658-1.015,2.496c-0.096,5.181-0.037,10.365-0.053,15.549
		c-0.008,2.478-0.811,3.291-3.285,3.304c-4.33,0.021-8.659,0.021-12.987,0c-2.447-0.013-3.236-0.832-3.242-3.341
		c-0.016-5.122-0.002-10.245-0.01-15.367c0-0.644-0.064-1.287-0.111-2.153c-1.694,0.786-2.626,1.531-2.589,3.437
		c0.127,6.644,0.053,13.291,0.047,19.938c-0.005,3.025-0.747,3.752-3.776,3.752c-5.429,0.003-10.857,0.006-16.283,0
		c-2.613-0.003-3.398-0.751-3.408-3.362c-0.021-6.647-0.074-13.294,0.037-19.938c0.027-1.757-0.484-2.874-2.258-3.613
		c-0.053,0.597-0.132,1.101-0.133,1.605c-0.01,5.246,0,10.489-0.01,15.735c-0.003,2.462-0.813,3.294-3.281,3.307
		c-4.328,0.024-8.658,0.021-12.988,0c-2.416-0.013-3.304-0.873-3.322-3.332c-0.037-5.243,0.031-10.489-0.059-15.731
		c-0.013-0.783-0.631-1.559-0.98-2.333c-0.681-1.506-1.861-2.976-1.958-4.519c-0.275-4.25-0.143-8.531-0.081-12.799
		c0.044-3.276,2.656-5.886,5.964-5.92c4.937-0.049,9.876,0.04,14.816,0.006c0.488-0.003,1.166-0.3,1.429-0.687
		c1.637-2.391,3.926-3.334,6.73-3.325c5.002,0.015,10.002,0.003,15.002,0.006C47.984,27.083,49.748,28.008,51.99,31.281z
		 M43.975,78.445c0.029-0.671,0.069-1.179,0.069-1.683c0.006-6.957,0.013-13.913,0-20.87c-0.006-1.828,0.479-3.118,2.435-3.885
		c0.846-0.331,1.71-1.819,1.743-2.806c0.171-5.212,0.059-10.433,0.088-15.651c0.012-1.837-0.932-2.864-2.646-2.886
		c-5.861-0.078-11.723-0.068-17.583-0.006c-1.62,0.016-2.665,0.913-2.666,2.663c-0.014,5.41-0.084,10.823,0.069,16.23
		c0.025,0.86,0.895,2.162,1.67,2.447c2.047,0.751,2.523,2.125,2.514,4.04c-0.032,6.765-0.013,13.529-0.013,20.291
		c0,0.684,0,1.367,0,2.116C34.526,78.445,39.143,78.445,43.975,78.445z M18.23,71.78c0.032-0.455,0.075-0.767,0.075-1.08
		c0.007-5.435,0.019-10.87-0.003-16.307c-0.008-1.55,0.366-2.685,1.964-3.406c0.681-0.309,1.386-1.419,1.414-2.187
		c0.139-3.944,0.062-7.894,0.062-11.841c0-1.516-0.708-2.211-2.273-2.193c-4.337,0.043-8.673,0.034-13.007,0.003
		c-1.577-0.009-2.187,0.699-2.165,2.255c0.053,3.882-0.066,7.767,0.084,11.646C4.411,49.49,5.115,50.644,5.828,51
		c1.471,0.733,1.934,1.8,1.939,3.257c0.013,2.329,0.003,4.658,0.003,6.987c0,3.477,0,6.954,0,10.536
		C11.331,71.78,14.672,71.78,18.23,71.78z M66.256,71.801c0-0.931,0-1.633,0-2.338c0-5.054,0.019-10.112-0.009-15.166
		c-0.01-1.503,0.505-2.499,1.893-3.285c0.724-0.412,1.447-1.522,1.481-2.345c0.153-3.882,0.047-7.773,0.079-11.661
		c0.014-1.522-0.572-2.261-2.183-2.243c-4.341,0.05-8.686,0.046-13.024,0.003c-1.465-0.016-2.175,0.56-2.172,2.044
		c0.017,4.015-0.058,8.036,0.064,12.051c0.022,0.73,0.641,1.813,1.263,2.079c1.68,0.721,2.097,1.893,2.083,3.539
		c-0.04,5.054-0.014,10.108-0.014,15.163c0,0.693,0,1.383,0,2.159C59.316,71.801,62.665,71.801,66.256,71.801z"/>
	<path fill-rule="evenodd" clip-rule="evenodd" fill="#ffffff" d="M36.803,0c6.085-0.009,11.191,5.063,11.21,11.132
		c0.019,6.167-4.925,11.182-11.077,11.237c-6.254,0.053-11.299-4.949-11.296-11.2C25.643,5.079,30.706,0.009,36.803,0z
		 M36.916,18.648c4.038-0.028,7.515-3.594,7.413-7.603c-0.102-3.956-3.579-7.377-7.49-7.368c-4.057,0.012-7.5,3.492-7.475,7.557
		C29.389,15.323,32.805,18.68,36.916,18.648z"/>
	<path fill-rule="evenodd" clip-rule="evenodd" fill="#ffffff" d="M3.682,18.813c-0.016-5.308,4.052-9.363,9.361-9.344
		c5.201,0.021,9.3,4.064,9.348,9.214c0.046,5.153-4.178,9.459-9.318,9.496C7.851,28.216,3.697,24.071,3.682,18.813z M7.669,18.772
		c-0.004,2.886,2.385,5.373,5.212,5.428c2.87,0.056,5.515-2.515,5.536-5.388c0.021-2.908-2.512-5.376-5.499-5.357
		C9.988,13.477,7.672,15.825,7.669,18.772z"/>
	<path fill-rule="evenodd" clip-rule="evenodd" fill="#ffffff" d="M61.155,9.471c5.233,0.053,9.305,4.256,9.224,9.524
		c-0.074,5.057-4.354,9.217-9.449,9.184c-5.188-0.037-9.329-4.266-9.297-9.496C51.665,13.427,55.813,9.413,61.155,9.471z
		 M61.039,13.254c-3.061-0.019-5.491,2.326-5.577,5.379c-0.085,3.056,2.471,5.741,5.489,5.771c3,0.025,5.638-2.647,5.604-5.685
		C66.525,15.729,64.046,13.272,61.039,13.254z"/>
</g>
</svg>
