<?xml version="1.0" encoding="utf-8"?>
<!-- Generator: Adobe Illustrator 16.0.0, SVG Export Plug-In . SVG Version: 6.00 Build 0)  -->
<!DOCTYPE svg PUBLIC "-//W3C//DTD SVG 1.1//EN" "http://www.w3.org/Graphics/SVG/1.1/DTD/svg11.dtd">
<svg version="1.1" id="Capa_1" xmlns="http://www.w3.org/2000/svg" xmlns:xlink="http://www.w3.org/1999/xlink" x="0px" y="0px"
	 width="74.082px" height="88.471px" viewBox="0 0 74.082 88.471" enable-background="new 0 0 74.082 88.471" xml:space="preserve">
<g>
	<path fill="#ffffff" d="M66.256,74.536c0.001-0.021,0.002-0.042,0.002-0.063C66.258,74.3,66.257,74.279,66.256,74.536z"/>
	<path fill="#ffffff" d="M73.976,57.726c-0.084-3.663-2.657-6.134-6.335-6.177c-4.389-0.049-8.781-0.025-13.172-0.003
		c-0.781,0.003-1.563,0.133-2.479,0.219c-2.242-3.272-4.006-4.197-7.962-4.197c-5-0.003-10,0.009-15.001-0.006
		c-2.806-0.009-5.095,0.934-6.731,3.325c-0.263,0.387-0.94,0.684-1.429,0.687c-4.939,0.034-9.88-0.056-14.816-0.006
		c-3.308,0.034-5.92,2.645-5.963,5.92c-0.063,4.269-0.195,8.549,0.08,12.799c0.098,1.543,1.277,3.013,1.958,4.519
		c0.35,0.773,0.968,1.55,0.98,2.333c0.09,5.243,0.021-3.511,0.059,1.731c0.019,2.459,0.906,3.319,3.322,3.332
		c4.33,0.021,8.661,0.024,12.988,0c2.468-0.013,3.278-0.845,3.281-3.307c0.01-5.246,0,3.511,0.01-1.735
		c0.001-0.504,0.08-1.008,0.133-1.605c1.774,0.739,2.286,1.856,2.258,3.613c-0.033,1.974-0.052,2.708-0.061,2.945
		c0.007,0.182,0.017,0.876,0.023,2.993c0.01,2.611,0.795,3.359,3.409,3.362c5.425,0.006,10.854,0.003,16.282,0
		c3.029,0,3.771-0.727,3.776-3.752c0.002-2.262,0.012-2.901,0.019-3.024c-0.009-0.27-0.029-1.026-0.064-2.914
		c-0.037-1.905,0.894-2.651,2.589-3.437c0.046,0.866,0.111,1.509,0.111,2.153c0.008,5.122-0.007-3.755,0.009,1.367
		c0.007,2.509,0.795,3.328,3.242,3.341c4.328,0.021,8.657,0.021,12.987,0c2.475-0.013,3.277-0.826,3.285-3.304c0,0,0-0.001,0-0.002
		c-0.013-0.696,0.011-3.45,0,0c0.006,0.349,0.021,0.183,0.053-1.547c0.016-0.838,0.644-1.67,1.015-2.496
		c0.712-1.565,1.948-3.087,2.063-4.692C74.192,66.034,74.068,61.87,73.976,57.726z M21.68,69.285
		c-0.028,0.767-0.733,1.877-1.413,2.187c-1.598,0.721-1.973,1.856-1.965,3.406c0.002,0.481,0.003,0.848,0.005,1.129
		c0.006-2.509,0.014,2.6,0,0c0,0.286-0.002,0.671-0.002,1.178c0,0.313-0.043,0.625-0.075,1.08c-3.559,0-6.899,0-10.46,0
		c0-0.144,0-0.32,0-0.536c0-2.329,0.01-0.658-0.003-2.987c-0.006-1.457-0.469-2.524-1.939-3.257
		c-0.713-0.356-1.416-1.51-1.447-2.329c-0.15-3.879-0.031-7.764-0.084-11.646c-0.021-1.556,0.588-2.264,2.166-2.255
		c4.333,0.031,8.67,0.04,13.006-0.003c1.565-0.019,2.273,0.677,2.273,2.193C21.741,61.391,21.819,65.341,21.68,69.285z
		 M48.221,69.687c-0.032,0.987-0.897,2.475-1.743,2.806c-1.955,0.767-2.44,2.057-2.435,3.885c0.013,6.957,0.007-0.087,0,6.87
		c0,0.504-0.04,1.011-0.069,1.683c-4.832,0-9.448,0-14.32,0c0-0.749,0-1.432,0-2.116c0-2.632-0.003-3.141-0.005-3.183
		c-0.002,0.195-0.001-0.031,0,0c0.002-0.214,0.008-0.943,0.018-3.108c0.01-1.915-0.467-3.288-2.513-4.04
		c-0.776-0.285-1.646-1.587-1.671-2.447c-0.153-5.407-0.083-10.82-0.069-16.23c0.002-1.75,1.046-2.647,2.666-2.663
		c5.86-0.062,11.722-0.071,17.583,0.006c1.716,0.021,2.659,1.048,2.646,2.886C48.279,59.253,48.392,64.475,48.221,69.687z
		 M69.62,69.151c-0.033,0.823-0.758,1.933-1.481,2.345c-1.289,0.729-1.818,1.646-1.881,2.976c0.004,0.553,0.006,2.616-0.003,1.661
		c0,0.645,0,1.302,0,2.152c-3.591,0-6.939,0-10.538,0c0-0.686,0-1.302,0-1.915c-0.02,1.306,0-4.553,0-0.245c0,0.081,0,0.164,0,0.245
		c0.004-0.227,0.008-0.661,0.014-1.407c0.014-1.646-0.403-2.818-2.083-3.539c-0.622-0.266-1.24-1.349-1.262-2.079
		c-0.123-4.015-0.049-8.036-0.065-12.051c-0.003-1.485,0.707-2.06,2.172-2.044c4.339,0.043,8.684,0.046,13.024-0.003
		c1.61-0.019,2.196,0.721,2.183,2.243C69.667,61.378,69.773,65.27,69.62,69.151z"/>
	<path fill="#ffffff" d="M66.256,74.536c-0.003,0.082-0.01,0.16-0.01,0.245c0.004,0.691,0.007,1.113,0.009,1.353
		c0-0.062,0-0.125,0-0.187C66.255,75.197,66.256,74.761,66.256,74.536z"/>
	<path fill="#ffffff" d="M25.096,82.112C25.087,81.894,25.084,82.419,25.096,82.112L25.096,82.112z"/>
	<path fill="#ffffff" d="M48.605,81.691C48.619,82.048,48.614,81.556,48.605,81.691L48.605,81.691z"/>
	<path fill="#ffffff" d="M13.042,29.952c-5.31-0.019-9.377,4.037-9.361,9.344c0.016,5.258,4.17,9.403,9.391,9.366
		c5.141-0.037,9.365-4.343,9.318-9.496C22.342,34.017,18.243,29.974,13.042,29.952z M12.88,44.685
		c-2.827-0.056-5.215-2.542-5.212-5.428c0.003-2.948,2.319-5.295,5.249-5.317c2.988-0.019,5.521,2.45,5.499,5.357
		C18.395,42.17,15.75,44.74,12.88,44.685z"/>
	<path fill="#ffffff" d="M61.154,29.955c-5.342-0.059-9.489,3.956-9.522,9.211c-0.032,5.23,4.109,9.459,9.297,9.496
		c5.096,0.034,9.375-4.126,9.449-9.184C70.459,34.211,66.388,30.008,61.154,29.955z M60.95,44.889
		c-3.019-0.031-5.574-2.716-5.488-5.771c0.085-3.053,2.516-5.398,5.576-5.379c3.007,0.019,5.486,2.475,5.517,5.466
		C66.588,42.241,63.95,44.914,60.95,44.889z"/>
	<path fill="#ffffff" d="M23.941,17.958h7.747l2.202,2.938c-4.714,1.311-8.25,5.672-8.252,10.758
		c-0.003,6.251,5.042,11.253,11.296,11.2c6.152-0.056,11.096-5.07,11.077-11.237c-0.015-4.832-3.259-9.022-7.649-10.529l2.737-3.129
		h7.043c2.506,0,4.544-2.038,4.544-4.543V4.543C54.687,2.038,52.648,0,50.143,0H23.941c-2.505,0-4.542,2.038-4.542,4.543v8.871
		C19.399,15.92,21.437,17.958,23.941,17.958z M44.328,31.529c0.102,4.009-3.375,7.575-7.413,7.603
		c-4.111,0.031-7.527-3.325-7.552-7.414c-0.024-4.064,3.418-7.544,7.475-7.557C40.749,24.152,44.228,27.573,44.328,31.529z
		 M22.321,4.543c0-0.894,0.727-1.621,1.62-1.621h26.201c0.895,0,1.622,0.728,1.622,1.621v8.871c0,0.894-0.728,1.621-1.622,1.621
		h-7.707c-0.422,0-0.82,0.182-1.098,0.501l-4.207,4.806l-3.544-4.723c-0.274-0.366-0.711-0.584-1.168-0.584h-8.478
		c-0.894,0-1.62-0.728-1.62-1.621V4.543z"/>
	<path fill="#ffffff" d="M60.314,26.621c0.264,0.354,0.67,0.568,1.081,0.585h0.089c0.422,0,0.821-0.181,1.099-0.499l4.958-5.667
		h0.88c2.505,0,4.542-2.038,4.542-4.543V7.625c0-2.505-2.037-4.543-4.542-4.543h-4.624c-0.807,0-1.462,0.655-1.462,1.461
		s0.655,1.461,1.462,1.461h4.624c0.893,0,1.619,0.727,1.619,1.621v8.871c0,0.894-0.727,1.622-1.619,1.622h-1.542
		c-0.422,0-0.821,0.182-1.099,0.502l-4.207,4.803l-1.351-1.819c-0.279-0.375-0.707-0.589-1.174-0.589
		c-0.316,0-0.619,0.1-0.873,0.289c-0.313,0.234-0.518,0.577-0.573,0.963c-0.057,0.386,0.041,0.771,0.275,1.084L60.314,26.621z"/>
	<path fill="#ffffff" d="M5.355,20.915h0.879l4.957,5.667c0.276,0.316,0.677,0.498,1.099,0.498h0.071
		c0.438-0.021,0.837-0.235,1.1-0.589l2.436-3.268c0.482-0.645,0.348-1.564-0.296-2.046c-0.257-0.19-0.56-0.291-0.875-0.291
		c-0.467,0-0.895,0.215-1.173,0.588l-1.354,1.819l-4.204-4.803c-0.276-0.317-0.677-0.499-1.099-0.499H5.355
		c-0.895,0-1.622-0.728-1.622-1.622V7.5c0-0.894,0.728-1.621,1.622-1.621h4.623c0.806,0,1.461-0.655,1.461-1.461
		s-0.655-1.461-1.461-1.461H5.355c-2.506,0-4.544,2.038-4.544,4.543v8.871C0.812,18.877,2.85,20.915,5.355,20.915z"/>
</g>
</svg>
