<?xml version="1.0" encoding="utf-8"?>
<!-- Generator: Adobe Illustrator 16.0.0, SVG Export Plug-In . SVG Version: 6.00 Build 0)  -->
<!DOCTYPE svg PUBLIC "-//W3C//DTD SVG 1.1//EN" "http://www.w3.org/Graphics/SVG/1.1/DTD/svg11.dtd">
<svg version="1.1" id="Capa_1" xmlns="http://www.w3.org/2000/svg" xmlns:xlink="http://www.w3.org/1999/xlink" x="0px" y="0px"
	 width="72.596px" height="81.987px" viewBox="0 0 72.596 81.987" enable-background="new 0 0 72.596 81.987" xml:space="preserve">
<g>
	<path fill="#01936B" d="M36.936,22.37c6.152-0.056,11.096-5.07,11.077-11.237C47.994,5.063,42.888-0.009,36.803,0
		c-6.097,0.009-11.16,5.079-11.163,11.169C25.637,17.42,30.682,22.422,36.936,22.37z M36.839,3.678
		c3.911-0.009,7.389,3.412,7.49,7.368c0.102,4.009-3.375,7.575-7.413,7.603c-4.111,0.031-7.527-3.325-7.552-7.414
		C29.339,7.17,32.782,3.69,36.839,3.678z"/>
	<path fill="#01936B" d="M13.072,28.179c5.141-0.037,9.364-4.343,9.318-9.496c-0.048-5.15-4.146-9.193-9.348-9.214
		c-5.31-0.019-9.377,4.037-9.361,9.344C3.697,24.071,7.851,28.216,13.072,28.179z M12.918,13.455
		c2.987-0.019,5.521,2.45,5.499,5.357c-0.021,2.874-2.666,5.444-5.536,5.388c-2.827-0.056-5.216-2.542-5.212-5.428
		C7.672,15.825,9.988,13.477,12.918,13.455z"/>
	<path fill="#01936B" d="M63.381,61.113h-2.7v-2.696c0-0.915-0.743-1.658-1.657-1.658c-0.912,0-1.654,0.744-1.654,1.658v2.696h-2.7
		c-0.914,0-1.657,0.744-1.657,1.658s0.743,1.658,1.657,1.658h2.7v2.696c0,0.915,0.742,1.658,1.654,1.658
		c0.914,0,1.657-0.744,1.657-1.658v-2.696h2.7c0.914,0,1.657-0.744,1.657-1.658S64.295,61.113,63.381,61.113z"/>
	<path fill="#01936B" d="M68.624,53.169c-2.561-2.563-5.971-3.974-9.601-3.974c-2.475,0-4.841,0.672-6.916,1.906l-0.117-19.82
		c-2.242-3.272-4.006-4.197-7.962-4.197c-5-0.003-10,0.009-15.002-0.006c-2.805-0.009-5.094,0.934-6.73,3.325
		c-0.263,0.387-0.94,0.684-1.429,0.687c-4.94,0.034-9.88-0.056-14.816-0.006c-3.308,0.034-5.92,2.645-5.964,5.92
		c-0.062,4.269-0.194,8.549,0.081,12.799c0.097,1.543,1.277,3.013,1.958,4.519c0.35,0.773,0.968,1.55,0.98,2.333
		c0.09,5.243,0.021,10.489,0.059,15.731c0.019,2.459,0.906,3.319,3.322,3.332c4.33,0.021,8.66,0.024,12.988,0
		c2.468-0.013,3.278-0.845,3.281-3.307c0.01-5.246,0-10.489,0.01-15.735c0.001-0.504,0.08-1.008,0.133-1.605
		c1.773,0.739,2.285,1.856,2.258,3.613c-0.111,6.644-0.059,13.292-0.037,19.938c0.01,2.611,0.795,3.359,3.408,3.362
		c5.426,0.006,10.854,0.003,16.283,0c3.029,0,3.771-0.727,3.776-3.752c0.002-2.255,0.011-4.51,0.018-6.765
		c0.259,0.31,0.527,0.615,0.818,0.906c2.567,2.563,5.976,3.974,9.6,3.974c3.627,0,7.037-1.412,9.601-3.977
		c2.562-2.559,3.972-5.968,3.972-9.599S71.186,55.73,68.624,53.169z M21.681,48.801c-0.028,0.767-0.733,1.877-1.414,2.187
		c-1.598,0.721-1.972,1.856-1.964,3.406c0.021,5.438,0.01,10.873,0.003,16.307c0,0.313-0.043,0.625-0.075,1.08
		c-3.559,0-6.899,0-10.46,0c0-3.582,0-7.059,0-10.536c0-2.329,0.01-4.658-0.003-6.987C7.762,52.8,7.299,51.733,5.828,51
		c-0.713-0.356-1.417-1.51-1.447-2.329c-0.15-3.879-0.031-7.764-0.084-11.646c-0.021-1.556,0.588-2.264,2.165-2.255
		c4.334,0.031,8.67,0.04,13.007-0.003c1.565-0.019,2.273,0.677,2.273,2.193C21.742,40.907,21.819,44.857,21.681,48.801z
		 M44.044,55.893c0.013,6.957,0.006,13.913,0,20.87c0,0.504-0.04,1.011-0.069,1.683c-4.832,0-9.448,0-14.32,0
		c0-0.749,0-1.432,0-2.116c0-6.762-0.02-13.526,0.013-20.291c0.01-1.915-0.467-3.288-2.514-4.04
		c-0.775-0.285-1.645-1.587-1.67-2.447c-0.153-5.407-0.083-10.82-0.069-16.23c0.001-1.75,1.046-2.647,2.666-2.663
		c5.86-0.062,11.722-0.071,17.583,0.006c1.715,0.021,2.658,1.048,2.646,2.886c-0.029,5.218,0.083,10.439-0.088,15.651
		c-0.033,0.987-0.897,2.475-1.743,2.806C44.523,52.775,44.038,54.065,44.044,55.893z M66.283,70.027
		c-1.939,1.939-4.519,3.007-7.26,3.007c-2.742,0-5.319-1.067-7.257-3.004c-4-4.003-3.998-10.517,0.005-14.518
		c1.937-1.938,4.512-3.004,7.252-3.004c2.744,0,5.322,1.066,7.26,3.004C70.283,59.515,70.283,66.026,66.283,70.027z"/>
</g>
</svg>
